<mxfile host="app.diagrams.net" modified="2023-06-06T19:09:36.249Z" agent="Mozilla/5.0 (Windows NT 10.0; Win64; x64) AppleWebKit/537.36 (KHTML, like Gecko) Chrome/112.0.0.0 Safari/537.36 OPR/98.0.0.0 (Edition std-1)" etag="3SC-Ad30FsHPjSZ6gKRg" version="21.3.7" type="device">
  <diagram id="l-WyEPw-EO5zAGnTGzA9" name="Página-1">
    <mxGraphModel dx="1009" dy="581" grid="1" gridSize="10" guides="1" tooltips="1" connect="1" arrows="1" fold="1" page="1" pageScale="1" pageWidth="827" pageHeight="1169" math="0" shadow="0">
      <root>
        <mxCell id="0" />
        <mxCell id="1" parent="0" />
        <mxCell id="cOPMSCWCCvKmP2tOlsZK-1" value="Jugador" style="shape=umlActor;verticalLabelPosition=bottom;verticalAlign=top;html=1;outlineConnect=0;" parent="1" vertex="1">
          <mxGeometry x="410" y="30" width="40" height="80" as="geometry" />
        </mxCell>
        <mxCell id="cOPMSCWCCvKmP2tOlsZK-4" value="Inicio de sesion" style="ellipse;whiteSpace=wrap;html=1;" parent="1" vertex="1">
          <mxGeometry x="380" y="170" width="100" height="60" as="geometry" />
        </mxCell>
        <mxCell id="cOPMSCWCCvKmP2tOlsZK-8" value="Partida contra IA" style="ellipse;whiteSpace=wrap;html=1;" parent="1" vertex="1">
          <mxGeometry x="620" y="530" width="110" height="60" as="geometry" />
        </mxCell>
        <mxCell id="cOPMSCWCCvKmP2tOlsZK-11" value="Crear jugador" style="ellipse;whiteSpace=wrap;html=1;" parent="1" vertex="1">
          <mxGeometry x="375" y="525" width="110" height="60" as="geometry" />
        </mxCell>
        <mxCell id="cOPMSCWCCvKmP2tOlsZK-13" value="Ver estadisticas de jugador" style="ellipse;whiteSpace=wrap;html=1;" parent="1" vertex="1">
          <mxGeometry x="140" y="525" width="120" height="70" as="geometry" />
        </mxCell>
        <mxCell id="cOPMSCWCCvKmP2tOlsZK-17" value="Introduccion de datos" style="ellipse;whiteSpace=wrap;html=1;" parent="1" vertex="1">
          <mxGeometry x="375" y="280" width="110" height="60" as="geometry" />
        </mxCell>
        <mxCell id="cOPMSCWCCvKmP2tOlsZK-19" value="Abre la cuenta" style="ellipse;whiteSpace=wrap;html=1;" parent="1" vertex="1">
          <mxGeometry x="375" y="380" width="110" height="60" as="geometry" />
        </mxCell>
        <mxCell id="cOPMSCWCCvKmP2tOlsZK-25" value="Seleccion de dificultad" style="ellipse;whiteSpace=wrap;html=1;" parent="1" vertex="1">
          <mxGeometry x="620" y="630" width="110" height="60" as="geometry" />
        </mxCell>
        <mxCell id="cOPMSCWCCvKmP2tOlsZK-26" value="Partida" style="ellipse;whiteSpace=wrap;html=1;" parent="1" vertex="1">
          <mxGeometry x="620" y="820" width="110" height="60" as="geometry" />
        </mxCell>
        <mxCell id="ZCx2jwb_KFV5a18Zm3Na-3" value="Rellena plantilla de jugador" style="ellipse;whiteSpace=wrap;html=1;" parent="1" vertex="1">
          <mxGeometry x="375" y="630" width="110" height="60" as="geometry" />
        </mxCell>
        <mxCell id="zL7BMEmOXuIHpO-jG2Jz-1" value="" style="endArrow=none;html=1;rounded=0;" parent="1" source="cOPMSCWCCvKmP2tOlsZK-1" target="cOPMSCWCCvKmP2tOlsZK-4" edge="1">
          <mxGeometry width="50" height="50" relative="1" as="geometry">
            <mxPoint x="390" y="470" as="sourcePoint" />
            <mxPoint x="440" y="420" as="targetPoint" />
          </mxGeometry>
        </mxCell>
        <mxCell id="zL7BMEmOXuIHpO-jG2Jz-2" value="" style="endArrow=none;html=1;rounded=0;" parent="1" source="cOPMSCWCCvKmP2tOlsZK-4" target="cOPMSCWCCvKmP2tOlsZK-17" edge="1">
          <mxGeometry width="50" height="50" relative="1" as="geometry">
            <mxPoint x="390" y="470" as="sourcePoint" />
            <mxPoint x="440" y="420" as="targetPoint" />
          </mxGeometry>
        </mxCell>
        <mxCell id="zL7BMEmOXuIHpO-jG2Jz-4" value="" style="endArrow=none;html=1;rounded=0;" parent="1" source="cOPMSCWCCvKmP2tOlsZK-19" target="cOPMSCWCCvKmP2tOlsZK-17" edge="1">
          <mxGeometry width="50" height="50" relative="1" as="geometry">
            <mxPoint x="390" y="470" as="sourcePoint" />
            <mxPoint x="440" y="420" as="targetPoint" />
          </mxGeometry>
        </mxCell>
        <mxCell id="zL7BMEmOXuIHpO-jG2Jz-6" value="" style="endArrow=none;html=1;rounded=0;" parent="1" source="cOPMSCWCCvKmP2tOlsZK-19" target="cOPMSCWCCvKmP2tOlsZK-8" edge="1">
          <mxGeometry width="50" height="50" relative="1" as="geometry">
            <mxPoint x="390" y="470" as="sourcePoint" />
            <mxPoint x="440" y="420" as="targetPoint" />
          </mxGeometry>
        </mxCell>
        <mxCell id="zL7BMEmOXuIHpO-jG2Jz-7" value="" style="endArrow=none;html=1;rounded=0;" parent="1" source="cOPMSCWCCvKmP2tOlsZK-8" target="cOPMSCWCCvKmP2tOlsZK-25" edge="1">
          <mxGeometry width="50" height="50" relative="1" as="geometry">
            <mxPoint x="390" y="470" as="sourcePoint" />
            <mxPoint x="440" y="420" as="targetPoint" />
          </mxGeometry>
        </mxCell>
        <mxCell id="zL7BMEmOXuIHpO-jG2Jz-8" value="" style="endArrow=none;html=1;rounded=0;" parent="1" source="zL7BMEmOXuIHpO-jG2Jz-22" target="cOPMSCWCCvKmP2tOlsZK-26" edge="1">
          <mxGeometry width="50" height="50" relative="1" as="geometry">
            <mxPoint x="390" y="470" as="sourcePoint" />
            <mxPoint x="440" y="420" as="targetPoint" />
          </mxGeometry>
        </mxCell>
        <mxCell id="zL7BMEmOXuIHpO-jG2Jz-10" value="" style="endArrow=none;html=1;rounded=0;" parent="1" source="cOPMSCWCCvKmP2tOlsZK-19" target="cOPMSCWCCvKmP2tOlsZK-11" edge="1">
          <mxGeometry width="50" height="50" relative="1" as="geometry">
            <mxPoint x="390" y="470" as="sourcePoint" />
            <mxPoint x="440" y="420" as="targetPoint" />
          </mxGeometry>
        </mxCell>
        <mxCell id="zL7BMEmOXuIHpO-jG2Jz-13" value="" style="endArrow=none;html=1;rounded=0;" parent="1" source="ZCx2jwb_KFV5a18Zm3Na-3" target="cOPMSCWCCvKmP2tOlsZK-11" edge="1">
          <mxGeometry width="50" height="50" relative="1" as="geometry">
            <mxPoint x="390" y="470" as="sourcePoint" />
            <mxPoint x="469" y="540" as="targetPoint" />
          </mxGeometry>
        </mxCell>
        <mxCell id="zL7BMEmOXuIHpO-jG2Jz-17" value="" style="endArrow=none;html=1;rounded=0;" parent="1" source="cOPMSCWCCvKmP2tOlsZK-19" target="cOPMSCWCCvKmP2tOlsZK-13" edge="1">
          <mxGeometry width="50" height="50" relative="1" as="geometry">
            <mxPoint x="390" y="470" as="sourcePoint" />
            <mxPoint x="440" y="420" as="targetPoint" />
          </mxGeometry>
        </mxCell>
        <mxCell id="zL7BMEmOXuIHpO-jG2Jz-19" value="Añadir a la base de datos" style="ellipse;whiteSpace=wrap;html=1;" parent="1" vertex="1">
          <mxGeometry x="375" y="730" width="110" height="60" as="geometry" />
        </mxCell>
        <mxCell id="zL7BMEmOXuIHpO-jG2Jz-20" value="" style="endArrow=none;html=1;rounded=0;" parent="1" source="ZCx2jwb_KFV5a18Zm3Na-3" target="zL7BMEmOXuIHpO-jG2Jz-19" edge="1">
          <mxGeometry width="50" height="50" relative="1" as="geometry">
            <mxPoint x="390" y="470" as="sourcePoint" />
            <mxPoint x="440" y="420" as="targetPoint" />
          </mxGeometry>
        </mxCell>
        <mxCell id="zL7BMEmOXuIHpO-jG2Jz-23" value="" style="endArrow=none;html=1;rounded=0;" parent="1" source="cOPMSCWCCvKmP2tOlsZK-25" target="zL7BMEmOXuIHpO-jG2Jz-22" edge="1">
          <mxGeometry width="50" height="50" relative="1" as="geometry">
            <mxPoint x="485.67683578912556" y="409.8079016586355" as="sourcePoint" />
            <mxPoint x="584.4565222889591" y="360.2717388555204" as="targetPoint" />
          </mxGeometry>
        </mxCell>
        <mxCell id="zL7BMEmOXuIHpO-jG2Jz-24" value="Enseña resultados" style="ellipse;whiteSpace=wrap;html=1;" parent="1" vertex="1">
          <mxGeometry x="620" y="900" width="110" height="60" as="geometry" />
        </mxCell>
        <mxCell id="zL7BMEmOXuIHpO-jG2Jz-25" value="Guarda resultados en las estadisticas" style="ellipse;whiteSpace=wrap;html=1;" parent="1" vertex="1">
          <mxGeometry x="620" y="980" width="110" height="60" as="geometry" />
        </mxCell>
        <mxCell id="zL7BMEmOXuIHpO-jG2Jz-26" value="" style="endArrow=none;html=1;rounded=0;" parent="1" source="cOPMSCWCCvKmP2tOlsZK-26" target="zL7BMEmOXuIHpO-jG2Jz-24" edge="1">
          <mxGeometry width="50" height="50" relative="1" as="geometry">
            <mxPoint x="524.6453899779697" y="346.73664299192205" as="sourcePoint" />
            <mxPoint x="569.3925989729773" y="363.2325731518299" as="targetPoint" />
          </mxGeometry>
        </mxCell>
        <mxCell id="zL7BMEmOXuIHpO-jG2Jz-27" value="" style="endArrow=none;html=1;rounded=0;" parent="1" source="zL7BMEmOXuIHpO-jG2Jz-24" target="zL7BMEmOXuIHpO-jG2Jz-25" edge="1">
          <mxGeometry width="50" height="50" relative="1" as="geometry">
            <mxPoint x="612.0044528762651" y="409.95547123735014" as="sourcePoint" />
            <mxPoint x="608.3272283221338" y="440.05494510079734" as="targetPoint" />
          </mxGeometry>
        </mxCell>
        <mxCell id="zL7BMEmOXuIHpO-jG2Jz-22" value="Seleccion de equipo" style="ellipse;whiteSpace=wrap;html=1;" parent="1" vertex="1">
          <mxGeometry x="620" y="730" width="110" height="60" as="geometry" />
        </mxCell>
      </root>
    </mxGraphModel>
  </diagram>
</mxfile>
